<svg xmlns="http://www.w3.org/2000/svg" width="233" height="225" viewBox="0 0 233 225">
  <g id="Group_257" data-name="Group 257" transform="translate(473 -271)" opacity="0.114">
    <circle id="Ellipse_1" data-name="Ellipse 1" cx="7.5" cy="7.5" r="7.5" transform="translate(-473 271)" fill="#9a9a9a"/>
    <circle id="Ellipse_1-2" data-name="Ellipse 1" cx="7.5" cy="7.5" r="7.5" transform="translate(-442 271)" fill="#9a9a9a"/>
    <circle id="Ellipse_1-3" data-name="Ellipse 1" cx="7.5" cy="7.5" r="7.5" transform="translate(-411 271)" fill="#9a9a9a"/>
    <circle id="Ellipse_1-4" data-name="Ellipse 1" cx="7.5" cy="7.5" r="7.5" transform="translate(-380 271)" fill="#9a9a9a"/>
    <ellipse id="Ellipse_1-5" data-name="Ellipse 1" cx="7" cy="7.5" rx="7" ry="7.5" transform="translate(-348 271)" fill="#9a9a9a"/>
    <ellipse id="Ellipse_1-6" data-name="Ellipse 1" cx="8" cy="7.5" rx="8" ry="7.5" transform="translate(-317 271)" fill="#9a9a9a"/>
    <circle id="Ellipse_1-7" data-name="Ellipse 1" cx="7.5" cy="7.5" r="7.5" transform="translate(-286 271)" fill="#9a9a9a"/>
    <circle id="Ellipse_1-8" data-name="Ellipse 1" cx="7.5" cy="7.5" r="7.5" transform="translate(-255 271)" fill="#9a9a9a"/>
    <circle id="Ellipse_1-9" data-name="Ellipse 1" cx="7.5" cy="7.5" r="7.5" transform="translate(-473 306)" fill="#9a9a9a"/>
    <circle id="Ellipse_1-10" data-name="Ellipse 1" cx="7.5" cy="7.5" r="7.5" transform="translate(-442 306)" fill="#9a9a9a"/>
    <circle id="Ellipse_1-11" data-name="Ellipse 1" cx="7.5" cy="7.5" r="7.5" transform="translate(-411 306)" fill="#9a9a9a"/>
    <circle id="Ellipse_1-12" data-name="Ellipse 1" cx="7.5" cy="7.5" r="7.5" transform="translate(-380 306)" fill="#9a9a9a"/>
    <ellipse id="Ellipse_1-13" data-name="Ellipse 1" cx="7" cy="7.5" rx="7" ry="7.5" transform="translate(-348 306)" fill="#9a9a9a"/>
    <ellipse id="Ellipse_1-14" data-name="Ellipse 1" cx="8" cy="7.5" rx="8" ry="7.5" transform="translate(-317 306)" fill="#9a9a9a"/>
    <circle id="Ellipse_1-15" data-name="Ellipse 1" cx="7.5" cy="7.5" r="7.5" transform="translate(-286 306)" fill="#9a9a9a"/>
    <circle id="Ellipse_1-16" data-name="Ellipse 1" cx="7.5" cy="7.5" r="7.5" transform="translate(-255 306)" fill="#9a9a9a"/>
    <circle id="Ellipse_1-17" data-name="Ellipse 1" cx="7.5" cy="7.5" r="7.5" transform="translate(-473 341)" fill="#9a9a9a"/>
    <circle id="Ellipse_1-18" data-name="Ellipse 1" cx="7.5" cy="7.5" r="7.5" transform="translate(-442 341)" fill="#9a9a9a"/>
    <circle id="Ellipse_1-19" data-name="Ellipse 1" cx="7.5" cy="7.5" r="7.5" transform="translate(-411 341)" fill="#9a9a9a"/>
    <circle id="Ellipse_1-20" data-name="Ellipse 1" cx="7.5" cy="7.5" r="7.5" transform="translate(-380 341)" fill="#9a9a9a"/>
    <ellipse id="Ellipse_1-21" data-name="Ellipse 1" cx="7" cy="7.5" rx="7" ry="7.5" transform="translate(-348 341)" fill="#9a9a9a"/>
    <ellipse id="Ellipse_1-22" data-name="Ellipse 1" cx="8" cy="7.5" rx="8" ry="7.5" transform="translate(-317 341)" fill="#9a9a9a"/>
    <circle id="Ellipse_1-23" data-name="Ellipse 1" cx="7.5" cy="7.5" r="7.5" transform="translate(-286 341)" fill="#9a9a9a"/>
    <circle id="Ellipse_1-24" data-name="Ellipse 1" cx="7.5" cy="7.5" r="7.5" transform="translate(-255 341)" fill="#9a9a9a"/>
    <circle id="Ellipse_1-25" data-name="Ellipse 1" cx="7.5" cy="7.5" r="7.5" transform="translate(-473 375)" fill="#9a9a9a"/>
    <circle id="Ellipse_1-26" data-name="Ellipse 1" cx="7.5" cy="7.5" r="7.5" transform="translate(-442 375)" fill="#9a9a9a"/>
    <circle id="Ellipse_1-27" data-name="Ellipse 1" cx="7.5" cy="7.5" r="7.5" transform="translate(-411 375)" fill="#9a9a9a"/>
    <circle id="Ellipse_1-28" data-name="Ellipse 1" cx="7.5" cy="7.5" r="7.5" transform="translate(-380 375)" fill="#9a9a9a"/>
    <ellipse id="Ellipse_1-29" data-name="Ellipse 1" cx="7" cy="7.5" rx="7" ry="7.5" transform="translate(-348 375)" fill="#9a9a9a"/>
    <ellipse id="Ellipse_1-30" data-name="Ellipse 1" cx="8" cy="7.5" rx="8" ry="7.5" transform="translate(-317 375)" fill="#9a9a9a"/>
    <circle id="Ellipse_1-31" data-name="Ellipse 1" cx="7.5" cy="7.5" r="7.5" transform="translate(-286 375)" fill="#9a9a9a"/>
    <circle id="Ellipse_1-32" data-name="Ellipse 1" cx="7.5" cy="7.5" r="7.5" transform="translate(-255 375)" fill="#9a9a9a"/>
    <ellipse id="Ellipse_1-33" data-name="Ellipse 1" cx="7.5" cy="7" rx="7.5" ry="7" transform="translate(-473 411)" fill="#9a9a9a"/>
    <ellipse id="Ellipse_1-34" data-name="Ellipse 1" cx="7.5" cy="7" rx="7.5" ry="7" transform="translate(-442 411)" fill="#9a9a9a"/>
    <ellipse id="Ellipse_1-35" data-name="Ellipse 1" cx="7.5" cy="7" rx="7.5" ry="7" transform="translate(-411 411)" fill="#9a9a9a"/>
    <ellipse id="Ellipse_1-36" data-name="Ellipse 1" cx="7.5" cy="7" rx="7.5" ry="7" transform="translate(-380 411)" fill="#9a9a9a"/>
    <circle id="Ellipse_1-37" data-name="Ellipse 1" cx="7" cy="7" r="7" transform="translate(-348 411)" fill="#9a9a9a"/>
    <ellipse id="Ellipse_1-38" data-name="Ellipse 1" cx="8" cy="7" rx="8" ry="7" transform="translate(-317 411)" fill="#9a9a9a"/>
    <ellipse id="Ellipse_1-39" data-name="Ellipse 1" cx="7.5" cy="7" rx="7.5" ry="7" transform="translate(-286 411)" fill="#9a9a9a"/>
    <ellipse id="Ellipse_1-40" data-name="Ellipse 1" cx="7.5" cy="7" rx="7.5" ry="7" transform="translate(-255 411)" fill="#9a9a9a"/>
    <ellipse id="Ellipse_1-41" data-name="Ellipse 1" cx="7.5" cy="8" rx="7.5" ry="8" transform="translate(-473 450)" fill="#9a9a9a"/>
    <ellipse id="Ellipse_1-42" data-name="Ellipse 1" cx="7.5" cy="8" rx="7.5" ry="8" transform="translate(-442 450)" fill="#9a9a9a"/>
    <ellipse id="Ellipse_1-43" data-name="Ellipse 1" cx="7.5" cy="8" rx="7.5" ry="8" transform="translate(-411 450)" fill="#9a9a9a"/>
    <ellipse id="Ellipse_1-44" data-name="Ellipse 1" cx="7.5" cy="8" rx="7.5" ry="8" transform="translate(-380 450)" fill="#9a9a9a"/>
    <ellipse id="Ellipse_1-45" data-name="Ellipse 1" cx="7" cy="8" rx="7" ry="8" transform="translate(-348 450)" fill="#9a9a9a"/>
    <circle id="Ellipse_1-46" data-name="Ellipse 1" cx="8" cy="8" r="8" transform="translate(-317 450)" fill="#9a9a9a"/>
    <ellipse id="Ellipse_1-47" data-name="Ellipse 1" cx="7.5" cy="8" rx="7.5" ry="8" transform="translate(-286 450)" fill="#9a9a9a"/>
    <ellipse id="Ellipse_1-48" data-name="Ellipse 1" cx="7.5" cy="8" rx="7.5" ry="8" transform="translate(-255 450)" fill="#9a9a9a"/>
    <circle id="Ellipse_1-49" data-name="Ellipse 1" cx="7.5" cy="7.5" r="7.5" transform="translate(-473 481)" fill="#9a9a9a"/>
    <circle id="Ellipse_1-50" data-name="Ellipse 1" cx="7.5" cy="7.5" r="7.5" transform="translate(-442 481)" fill="#9a9a9a"/>
    <circle id="Ellipse_1-51" data-name="Ellipse 1" cx="7.5" cy="7.5" r="7.5" transform="translate(-411 481)" fill="#9a9a9a"/>
    <circle id="Ellipse_1-52" data-name="Ellipse 1" cx="7.5" cy="7.5" r="7.5" transform="translate(-380 481)" fill="#9a9a9a"/>
    <ellipse id="Ellipse_1-53" data-name="Ellipse 1" cx="7" cy="7.5" rx="7" ry="7.5" transform="translate(-348 481)" fill="#9a9a9a"/>
    <ellipse id="Ellipse_1-54" data-name="Ellipse 1" cx="8" cy="7.5" rx="8" ry="7.5" transform="translate(-317 481)" fill="#9a9a9a"/>
    <circle id="Ellipse_1-55" data-name="Ellipse 1" cx="7.5" cy="7.5" r="7.5" transform="translate(-286 481)" fill="#9a9a9a"/>
    <circle id="Ellipse_1-56" data-name="Ellipse 1" cx="7.5" cy="7.5" r="7.5" transform="translate(-255 481)" fill="#9a9a9a"/>
  </g>
</svg>